G04*
G04 #@! TF.GenerationSoftware,Altium Limited,Altium Designer,24.2.2 (26)*
G04*
G04 Layer_Color=2752767*
%FSLAX44Y44*%
%MOMM*%
G71*
G04*
G04 #@! TF.SameCoordinates,FA43C0E3-4D26-4613-8E19-43AB185FC845*
G04*
G04*
G04 #@! TF.FilePolarity,Positive*
G04*
G01*
G75*
%ADD62C,0.1270*%
D62*
X407673Y78285D02*
Y88445D01*
X417833D01*
Y78285D01*
X407673D01*
X598674D02*
Y88445D01*
X608834D01*
Y78285D01*
X598674D01*
Y799032D02*
Y809192D01*
X608834D01*
Y799032D01*
X598674D01*
X407673D02*
Y809192D01*
X417833D01*
Y799032D01*
X407673D01*
X692798Y263520D02*
X687719Y273680D01*
X697878D01*
X692798Y263520D01*
X678575D02*
X673494Y273680D01*
X683654D01*
X678575Y263520D01*
X662572D02*
X657493Y273680D01*
X667653D01*
X662572Y263520D01*
X692152Y274528D02*
X687072Y284688D01*
X697232D01*
X692152Y274528D01*
X678180Y275082D02*
X673100Y285242D01*
X683260D01*
X678180Y275082D01*
X663842Y275204D02*
X658763Y285364D01*
X668923D01*
X663842Y275204D01*
X602629Y389504D02*
X597548Y399664D01*
X607709D01*
X602629Y389504D01*
X626250Y408046D02*
X621171Y418206D01*
X631330D01*
X626250Y408046D01*
X612140Y401828D02*
X607060Y411988D01*
X617220D01*
X612140Y401828D01*
X509016Y407162D02*
X503936Y417322D01*
X514096D01*
X509016Y407162D01*
X480060Y406654D02*
X474980Y416814D01*
X485140D01*
X480060Y406654D01*
X509270Y420624D02*
X504190Y430784D01*
X514350D01*
X509270Y420624D01*
X421386Y271526D02*
X416306Y281686D01*
X426466D01*
X421386Y271526D01*
X415290Y287528D02*
X410210Y297688D01*
X420370D01*
X415290Y287528D01*
X418338Y321818D02*
X413258Y331978D01*
X423418D01*
X418338Y321818D01*
X420370Y305562D02*
X415290Y315722D01*
X425450D01*
X420370Y305562D01*
X438658Y272288D02*
X433578Y282448D01*
X443738D01*
X438658Y272288D01*
X434594Y292354D02*
X429514Y302514D01*
X439674D01*
X434594Y292354D01*
X439674Y310134D02*
X434594Y320294D01*
X444754D01*
X439674Y310134D01*
X512064Y450850D02*
X506984Y461010D01*
X517144D01*
X512064Y450850D01*
X501904D02*
X496824Y461010D01*
X506984D01*
X501904Y450850D01*
X491490D02*
X486410Y461010D01*
X496570D01*
X491490Y450850D01*
X480822D02*
X475742Y461010D01*
X485902D01*
X480822Y450850D01*
X406654Y336296D02*
X401574Y346456D01*
X411734D01*
X406654Y336296D01*
Y346456D02*
X401574Y356616D01*
X411734D01*
X406654Y346456D01*
Y356870D02*
X401574Y367030D01*
X411734D01*
X406654Y356870D01*
Y367538D02*
X401574Y377698D01*
X411734D01*
X406654Y367538D01*
X417068Y336042D02*
X411988Y346202D01*
X422148D01*
X417068Y336042D01*
Y346202D02*
X411988Y356362D01*
X422148D01*
X417068Y346202D01*
Y356616D02*
X411988Y366776D01*
X422148D01*
X417068Y356616D01*
Y367284D02*
X411988Y377444D01*
X422148D01*
X417068Y367284D01*
X427990Y336042D02*
X422910Y346202D01*
X433070D01*
X427990Y336042D01*
Y346202D02*
X422910Y356362D01*
X433070D01*
X427990Y346202D01*
Y356616D02*
X422910Y366776D01*
X433070D01*
X427990Y356616D01*
Y367284D02*
X422910Y377444D01*
X433070D01*
X427990Y367284D01*
X438404Y335280D02*
X433324Y345440D01*
X443484D01*
X438404Y335280D01*
Y345440D02*
X433324Y355600D01*
X443484D01*
X438404Y345440D01*
Y355854D02*
X433324Y366014D01*
X443484D01*
X438404Y355854D01*
Y366522D02*
X433324Y376682D01*
X443484D01*
X438404Y366522D01*
X546100Y362712D02*
X541020Y372872D01*
X551180D01*
X546100Y362712D01*
X556260D02*
X551180Y372872D01*
X561340D01*
X556260Y362712D01*
X566674D02*
X561594Y372872D01*
X571754D01*
X566674Y362712D01*
X577342D02*
X572262Y372872D01*
X582422D01*
X577342Y362712D01*
X546354Y353314D02*
X541274Y363474D01*
X551434D01*
X546354Y353314D01*
X556514D02*
X551434Y363474D01*
X561594D01*
X556514Y353314D01*
X566928D02*
X561848Y363474D01*
X572008D01*
X566928Y353314D01*
X577596D02*
X572516Y363474D01*
X582676D01*
X577596Y353314D01*
X662432Y417830D02*
X657352Y427990D01*
X667512D01*
X662432Y417830D01*
X672592D02*
X667512Y427990D01*
X677672D01*
X672592Y417830D01*
X683006D02*
X677926Y427990D01*
X688086D01*
X683006Y417830D01*
X693674D02*
X688594Y427990D01*
X698754D01*
X693674Y417830D01*
X662178Y408686D02*
X657098Y418846D01*
X667258D01*
X662178Y408686D01*
X672338D02*
X667258Y418846D01*
X677418D01*
X672338Y408686D01*
X682752D02*
X677672Y418846D01*
X687832D01*
X682752Y408686D01*
X693420D02*
X688340Y418846D01*
X698500D01*
X693420Y408686D01*
X693674Y398780D02*
X688594Y408940D01*
X698754D01*
X693674Y398780D01*
X683006D02*
X677926Y408940D01*
X688086D01*
X683006Y398780D01*
X672592D02*
X667512Y408940D01*
X677672D01*
X672592Y398780D01*
X662432D02*
X657352Y408940D01*
X667512D01*
X662432Y398780D01*
X520700Y593344D02*
X515620Y603504D01*
X525780D01*
X520700Y593344D01*
X521208Y521716D02*
X516128Y531876D01*
X526288D01*
X521208Y521716D01*
X362966Y77470D02*
X357886Y87630D01*
X368046D01*
X362966Y77470D01*
X506984Y494538D02*
X501904Y504698D01*
X512064D01*
X506984Y494538D01*
X577088Y511810D02*
X572008Y521970D01*
X582168D01*
X577088Y511810D01*
M02*
