G04*
G04 #@! TF.GenerationSoftware,Altium Limited,Altium Designer,24.2.2 (26)*
G04*
G04 Layer_Color=32896*
%FSLAX44Y44*%
%MOMM*%
G71*
G04*
G04 #@! TF.SameCoordinates,FA43C0E3-4D26-4613-8E19-43AB185FC845*
G04*
G04*
G04 #@! TF.FilePolarity,Positive*
G04*
G01*
G75*
%ADD10C,0.2540*%
%ADD49C,0.4000*%
%ADD50C,0.1524*%
%ADD51C,0.0762*%
%ADD52C,0.3000*%
%ADD53C,0.1520*%
%ADD54C,0.1540*%
%ADD55C,0.1500*%
G36*
X339449Y816055D02*
X338506D01*
Y822060D01*
X338495Y822049D01*
X338439Y822004D01*
X338373Y821938D01*
X338262Y821860D01*
X338139Y821760D01*
X337984Y821649D01*
X337807Y821527D01*
X337607Y821405D01*
X337596D01*
X337584Y821394D01*
X337518Y821349D01*
X337407Y821294D01*
X337274Y821227D01*
X337118Y821150D01*
X336952Y821072D01*
X336785Y820994D01*
X336619Y820928D01*
Y821838D01*
X336630D01*
X336652Y821860D01*
X336697Y821871D01*
X336752Y821904D01*
X336819Y821938D01*
X336896Y821982D01*
X337085Y822093D01*
X337307Y822215D01*
X337529Y822371D01*
X337762Y822548D01*
X337995Y822737D01*
X338006Y822748D01*
X338017Y822759D01*
X338051Y822792D01*
X338095Y822826D01*
X338195Y822937D01*
X338328Y823070D01*
X338461Y823225D01*
X338606Y823403D01*
X338728Y823580D01*
X338839Y823769D01*
X339449D01*
Y816055D01*
D02*
G37*
G36*
X335231Y822826D02*
X332701D01*
Y816055D01*
X331679D01*
Y822826D01*
X329149D01*
Y823736D01*
X335231D01*
Y822826D01*
D02*
G37*
G36*
X328904Y816055D02*
X327750D01*
X326851Y818386D01*
X323632D01*
X322800Y816055D01*
X321723D01*
X324653Y823736D01*
X325763D01*
X328904Y816055D01*
D02*
G37*
G36*
X318460Y823725D02*
X318548D01*
X318748Y823703D01*
X318970Y823680D01*
X319203Y823636D01*
X319436Y823580D01*
X319647Y823503D01*
X319658D01*
X319669Y823492D01*
X319736Y823458D01*
X319836Y823403D01*
X319947Y823325D01*
X320080Y823225D01*
X320224Y823103D01*
X320358Y822948D01*
X320480Y822781D01*
X320491Y822759D01*
X320524Y822692D01*
X320580Y822604D01*
X320635Y822470D01*
X320691Y822315D01*
X320746Y822149D01*
X320779Y821960D01*
X320790Y821771D01*
Y821749D01*
Y821693D01*
X320779Y821594D01*
X320757Y821471D01*
X320724Y821327D01*
X320668Y821172D01*
X320602Y821016D01*
X320513Y820850D01*
X320502Y820828D01*
X320469Y820783D01*
X320402Y820695D01*
X320313Y820606D01*
X320202Y820495D01*
X320069Y820373D01*
X319902Y820262D01*
X319714Y820151D01*
X319725D01*
X319747Y820140D01*
X319780Y820128D01*
X319825Y820106D01*
X319958Y820062D01*
X320113Y819984D01*
X320280Y819884D01*
X320469Y819762D01*
X320635Y819618D01*
X320790Y819440D01*
X320802Y819418D01*
X320846Y819352D01*
X320913Y819252D01*
X320979Y819118D01*
X321046Y818941D01*
X321112Y818752D01*
X321157Y818530D01*
X321168Y818286D01*
Y818275D01*
Y818264D01*
Y818197D01*
X321157Y818086D01*
X321135Y817953D01*
X321112Y817797D01*
X321068Y817631D01*
X321012Y817453D01*
X320935Y817276D01*
X320924Y817254D01*
X320890Y817198D01*
X320846Y817120D01*
X320779Y817009D01*
X320691Y816898D01*
X320602Y816776D01*
X320491Y816654D01*
X320369Y816554D01*
X320358Y816543D01*
X320313Y816510D01*
X320235Y816466D01*
X320136Y816421D01*
X320014Y816355D01*
X319869Y816288D01*
X319714Y816232D01*
X319525Y816177D01*
X319503D01*
X319436Y816155D01*
X319325Y816144D01*
X319181Y816121D01*
X319004Y816099D01*
X318793Y816077D01*
X318559Y816066D01*
X318293Y816055D01*
X315363D01*
Y823736D01*
X318382D01*
X318460Y823725D01*
D02*
G37*
G36*
X706628Y317877D02*
X696679D01*
Y364236D01*
X706628D01*
Y317877D01*
D02*
G37*
G36*
X586448Y410293D02*
X586637Y410282D01*
X586814Y410249D01*
X586981Y410216D01*
X587136Y410171D01*
X587280Y410127D01*
X587414Y410071D01*
X587536Y410016D01*
X587647Y409960D01*
X587735Y409905D01*
X587813Y409860D01*
X587880Y409816D01*
X587935Y409783D01*
X587968Y409749D01*
X587991Y409738D01*
X588002Y409727D01*
X588113Y409616D01*
X588213Y409494D01*
X588313Y409361D01*
X588390Y409228D01*
X588523Y408961D01*
X588612Y408695D01*
X588646Y408573D01*
X588679Y408451D01*
X588701Y408351D01*
X588723Y408262D01*
X588734Y408184D01*
Y408129D01*
X588745Y408096D01*
Y408084D01*
X587780Y407985D01*
X587758Y408240D01*
X587713Y408462D01*
X587647Y408662D01*
X587569Y408817D01*
X587502Y408950D01*
X587436Y409039D01*
X587391Y409095D01*
X587369Y409117D01*
X587203Y409250D01*
X587025Y409350D01*
X586836Y409427D01*
X586670Y409472D01*
X586515Y409505D01*
X586381Y409516D01*
X586337Y409527D01*
X586270D01*
X586037Y409516D01*
X585826Y409472D01*
X585649Y409405D01*
X585493Y409339D01*
X585371Y409261D01*
X585294Y409206D01*
X585238Y409161D01*
X585216Y409139D01*
X585083Y408983D01*
X584983Y408828D01*
X584905Y408673D01*
X584861Y408517D01*
X584827Y408395D01*
X584816Y408284D01*
X584805Y408218D01*
Y408206D01*
Y408195D01*
X584827Y407996D01*
X584872Y407785D01*
X584949Y407596D01*
X585027Y407418D01*
X585116Y407274D01*
X585194Y407152D01*
X585216Y407108D01*
X585238Y407074D01*
X585260Y407063D01*
Y407052D01*
X585349Y406930D01*
X585460Y406808D01*
X585582Y406675D01*
X585715Y406541D01*
X585993Y406275D01*
X586270Y406009D01*
X586415Y405887D01*
X586537Y405776D01*
X586659Y405676D01*
X586759Y405587D01*
X586836Y405520D01*
X586903Y405465D01*
X586947Y405432D01*
X586959Y405420D01*
X587236Y405187D01*
X587491Y404965D01*
X587702Y404766D01*
X587869Y404599D01*
X588013Y404455D01*
X588113Y404355D01*
X588168Y404288D01*
X588190Y404277D01*
Y404266D01*
X588346Y404077D01*
X588468Y403900D01*
X588579Y403722D01*
X588668Y403567D01*
X588734Y403434D01*
X588779Y403334D01*
X588801Y403267D01*
X588812Y403256D01*
Y403245D01*
X588857Y403123D01*
X588879Y403012D01*
X588901Y402901D01*
X588912Y402801D01*
X588923Y402712D01*
Y402645D01*
Y402601D01*
Y402590D01*
X583828D01*
Y403500D01*
X587613D01*
X587480Y403689D01*
X587414Y403767D01*
X587358Y403844D01*
X587303Y403911D01*
X587258Y403955D01*
X587225Y403989D01*
X587214Y404000D01*
X587158Y404055D01*
X587092Y404111D01*
X586936Y404255D01*
X586759Y404422D01*
X586570Y404588D01*
X586392Y404732D01*
X586315Y404799D01*
X586248Y404865D01*
X586193Y404910D01*
X586148Y404943D01*
X586126Y404965D01*
X586115Y404977D01*
X585937Y405132D01*
X585760Y405276D01*
X585604Y405420D01*
X585460Y405542D01*
X585327Y405665D01*
X585216Y405776D01*
X585105Y405876D01*
X585016Y405964D01*
X584927Y406053D01*
X584861Y406120D01*
X584805Y406175D01*
X584750Y406231D01*
X584694Y406297D01*
X584672Y406320D01*
X584516Y406508D01*
X584383Y406675D01*
X584272Y406841D01*
X584184Y406974D01*
X584117Y407096D01*
X584072Y407185D01*
X584050Y407241D01*
X584039Y407263D01*
X583973Y407430D01*
X583928Y407596D01*
X583884Y407751D01*
X583862Y407885D01*
X583851Y408007D01*
X583839Y408096D01*
Y408151D01*
Y408173D01*
X583851Y408340D01*
X583873Y408495D01*
X583895Y408651D01*
X583939Y408784D01*
X584050Y409050D01*
X584161Y409261D01*
X584228Y409361D01*
X584283Y409439D01*
X584339Y409516D01*
X584394Y409572D01*
X584439Y409616D01*
X584461Y409661D01*
X584483Y409672D01*
X584494Y409683D01*
X584616Y409794D01*
X584750Y409894D01*
X584894Y409971D01*
X585038Y410038D01*
X585327Y410149D01*
X585615Y410227D01*
X585737Y410249D01*
X585860Y410271D01*
X585971Y410282D01*
X586059Y410293D01*
X586137Y410304D01*
X586248D01*
X586448Y410293D01*
D02*
G37*
G36*
X596138Y405831D02*
Y405609D01*
X596127Y405398D01*
X596116Y405199D01*
X596094Y405010D01*
X596071Y404843D01*
X596049Y404688D01*
X596016Y404544D01*
X595994Y404410D01*
X595971Y404288D01*
X595938Y404188D01*
X595916Y404100D01*
X595894Y404033D01*
X595872Y403978D01*
X595860Y403933D01*
X595849Y403911D01*
Y403900D01*
X595727Y403656D01*
X595572Y403434D01*
X595416Y403256D01*
X595250Y403101D01*
X595106Y402979D01*
X594984Y402890D01*
X594939Y402868D01*
X594906Y402845D01*
X594884Y402823D01*
X594873D01*
X594595Y402701D01*
X594306Y402612D01*
X594007Y402546D01*
X593729Y402501D01*
X593607Y402490D01*
X593485Y402479D01*
X593374Y402468D01*
X593285D01*
X593208Y402457D01*
X593108D01*
X592708Y402479D01*
X592531Y402501D01*
X592364Y402523D01*
X592198Y402557D01*
X592053Y402590D01*
X591920Y402623D01*
X591798Y402668D01*
X591687Y402712D01*
X591598Y402745D01*
X591509Y402779D01*
X591443Y402812D01*
X591387Y402845D01*
X591354Y402856D01*
X591332Y402879D01*
X591321D01*
X591077Y403045D01*
X590877Y403234D01*
X590721Y403411D01*
X590588Y403589D01*
X590488Y403744D01*
X590422Y403867D01*
X590399Y403911D01*
X590377Y403944D01*
X590366Y403966D01*
Y403978D01*
X590322Y404111D01*
X590277Y404255D01*
X590211Y404555D01*
X590166Y404865D01*
X590133Y405165D01*
X590122Y405298D01*
X590111Y405432D01*
Y405542D01*
X590100Y405642D01*
Y405720D01*
Y405776D01*
Y405820D01*
Y405831D01*
Y410271D01*
X591121D01*
Y405831D01*
Y405576D01*
X591143Y405332D01*
X591165Y405121D01*
X591199Y404921D01*
X591232Y404743D01*
X591276Y404577D01*
X591310Y404433D01*
X591354Y404310D01*
X591398Y404211D01*
X591443Y404111D01*
X591487Y404044D01*
X591521Y403978D01*
X591554Y403933D01*
X591576Y403900D01*
X591587Y403889D01*
X591598Y403878D01*
X591698Y403789D01*
X591809Y403711D01*
X592053Y403589D01*
X592309Y403500D01*
X592575Y403445D01*
X592819Y403400D01*
X592919Y403389D01*
X593019D01*
X593086Y403378D01*
X593197D01*
X593430Y403389D01*
X593641Y403423D01*
X593840Y403456D01*
X593996Y403511D01*
X594129Y403556D01*
X594229Y403589D01*
X594284Y403622D01*
X594306Y403633D01*
X594462Y403733D01*
X594595Y403855D01*
X594706Y403978D01*
X594784Y404089D01*
X594850Y404199D01*
X594906Y404277D01*
X594928Y404333D01*
X594939Y404355D01*
X594972Y404455D01*
X594995Y404555D01*
X595039Y404788D01*
X595072Y405032D01*
X595095Y405276D01*
X595106Y405487D01*
Y405587D01*
X595117Y405665D01*
Y405731D01*
Y405787D01*
Y405820D01*
Y405831D01*
Y410271D01*
X596138D01*
Y405831D01*
D02*
G37*
%LPC*%
G36*
X325186Y822937D02*
Y822926D01*
X325175Y822903D01*
Y822859D01*
X325153Y822815D01*
X325142Y822737D01*
X325119Y822659D01*
X325075Y822470D01*
X325019Y822249D01*
X324942Y822004D01*
X324864Y821738D01*
X324764Y821460D01*
X323932Y819218D01*
X326529D01*
X325730Y821327D01*
Y821338D01*
X325719Y821372D01*
X325697Y821427D01*
X325674Y821494D01*
X325641Y821571D01*
X325608Y821671D01*
X325574Y821782D01*
X325530Y821893D01*
X325441Y822149D01*
X325353Y822415D01*
X325264Y822681D01*
X325186Y822937D01*
D02*
G37*
G36*
X318204Y822826D02*
X316384D01*
Y820517D01*
X318271D01*
X318415Y820528D01*
X318571Y820539D01*
X318726Y820550D01*
X318881Y820573D01*
X319004Y820595D01*
X319026Y820606D01*
X319070Y820617D01*
X319137Y820650D01*
X319225Y820695D01*
X319314Y820739D01*
X319414Y820806D01*
X319514Y820894D01*
X319592Y820983D01*
X319603Y820994D01*
X319625Y821028D01*
X319658Y821094D01*
X319692Y821172D01*
X319725Y821261D01*
X319758Y821372D01*
X319780Y821505D01*
X319792Y821649D01*
Y821671D01*
Y821716D01*
X319780Y821782D01*
X319769Y821871D01*
X319747Y821982D01*
X319714Y822093D01*
X319669Y822204D01*
X319603Y822315D01*
X319592Y822326D01*
X319569Y822359D01*
X319525Y822415D01*
X319470Y822470D01*
X319392Y822537D01*
X319303Y822604D01*
X319192Y822670D01*
X319070Y822715D01*
X319059D01*
X319004Y822737D01*
X318926Y822748D01*
X318804Y822770D01*
X318637Y822792D01*
X318449Y822803D01*
X318204Y822826D01*
D02*
G37*
G36*
X318404Y819607D02*
X316384D01*
Y816965D01*
X318571D01*
X318804Y816976D01*
X318904Y816987D01*
X318992Y816998D01*
X319004D01*
X319048Y817009D01*
X319114Y817020D01*
X319192Y817043D01*
X319381Y817109D01*
X319569Y817198D01*
X319581Y817209D01*
X319614Y817231D01*
X319658Y817265D01*
X319714Y817309D01*
X319769Y817376D01*
X319847Y817442D01*
X319902Y817531D01*
X319969Y817631D01*
X319980Y817642D01*
X319991Y817675D01*
X320014Y817742D01*
X320047Y817820D01*
X320080Y817908D01*
X320102Y818019D01*
X320113Y818153D01*
X320125Y818286D01*
Y818308D01*
Y818353D01*
X320113Y818441D01*
X320091Y818541D01*
X320069Y818652D01*
X320025Y818774D01*
X319969Y818896D01*
X319891Y819018D01*
X319880Y819030D01*
X319847Y819074D01*
X319803Y819129D01*
X319736Y819196D01*
X319647Y819274D01*
X319536Y819352D01*
X319414Y819418D01*
X319270Y819474D01*
X319248Y819485D01*
X319203Y819496D01*
X319103Y819518D01*
X318981Y819540D01*
X318826Y819562D01*
X318637Y819585D01*
X318404Y819607D01*
D02*
G37*
G36*
X704088Y361696D02*
X699219D01*
Y359782D01*
X699226Y359733D01*
Y359677D01*
X699240Y359550D01*
X699254Y359409D01*
X699283Y359262D01*
X699318Y359114D01*
X699367Y358980D01*
Y358973D01*
X699374Y358966D01*
X699395Y358924D01*
X699430Y358861D01*
X699480Y358790D01*
X699543Y358706D01*
X699620Y358614D01*
X699719Y358530D01*
X699824Y358452D01*
X699838Y358446D01*
X699881Y358424D01*
X699937Y358389D01*
X700021Y358354D01*
X700120Y358319D01*
X700225Y358284D01*
X700345Y358262D01*
X700465Y358256D01*
X700479D01*
X700514D01*
X700577Y358262D01*
X700655Y358277D01*
X700746Y358298D01*
X700844Y358333D01*
X700943Y358375D01*
X701049Y358431D01*
X701063Y358438D01*
X701091Y358460D01*
X701147Y358502D01*
X701203Y358558D01*
X701274Y358628D01*
X701351Y358713D01*
X701421Y358818D01*
X701492Y358938D01*
Y358931D01*
X701499Y358917D01*
X701506Y358896D01*
X701520Y358868D01*
X701548Y358783D01*
X701597Y358685D01*
X701661Y358579D01*
X701738Y358460D01*
X701830Y358354D01*
X701942Y358256D01*
X701956Y358248D01*
X701998Y358220D01*
X702062Y358178D01*
X702146Y358136D01*
X702259Y358094D01*
X702378Y358051D01*
X702519Y358023D01*
X702674Y358016D01*
X699219D01*
X702730D01*
X702800Y358023D01*
X702885Y358037D01*
X702983Y358051D01*
X703089Y358080D01*
X703202Y358115D01*
X703314Y358164D01*
X703328Y358171D01*
X703363Y358192D01*
X703413Y358220D01*
X703483Y358262D01*
X703553Y358319D01*
X703631Y358375D01*
X703708Y358446D01*
X703771Y358523D01*
X703778Y358530D01*
X703800Y358558D01*
X703828Y358607D01*
X703856Y358671D01*
X703898Y358748D01*
X703940Y358839D01*
X703975Y358938D01*
X704011Y359058D01*
Y359072D01*
X704025Y359114D01*
X704032Y359184D01*
X704046Y359276D01*
X704060Y359388D01*
X704074Y359522D01*
X704081Y359670D01*
X704088Y359838D01*
Y358016D01*
D01*
Y361696D01*
D02*
G37*
G36*
Y357664D02*
D01*
X699219Y355807D01*
Y355103D01*
X704088Y353112D01*
Y353844D01*
X702610Y354414D01*
Y356454D01*
X704088Y356982D01*
Y357664D01*
D02*
G37*
G36*
Y352957D02*
Y351353D01*
X699796D01*
Y352957D01*
X699219D01*
Y349102D01*
X704088D01*
Y352957D01*
D02*
G37*
G36*
X702625Y348750D02*
X702027D01*
Y346900D01*
X702625D01*
Y348750D01*
D02*
G37*
G36*
X704088Y336733D02*
X699219D01*
Y333053D01*
Y334819D01*
X699226Y334770D01*
Y334714D01*
X699240Y334587D01*
X699254Y334446D01*
X699283Y334299D01*
X699318Y334151D01*
X699367Y334017D01*
Y334010D01*
X699374Y334003D01*
X699395Y333961D01*
X699430Y333898D01*
X699480Y333827D01*
X699543Y333743D01*
X699620Y333651D01*
X699719Y333567D01*
X699824Y333489D01*
X699838Y333482D01*
X699881Y333461D01*
X699937Y333426D01*
X700021Y333391D01*
X700120Y333356D01*
X700225Y333321D01*
X700345Y333299D01*
X700465Y333293D01*
X700479D01*
X700514D01*
X700577Y333299D01*
X700655Y333314D01*
X700746Y333335D01*
X700844Y333370D01*
X700943Y333412D01*
X701049Y333468D01*
X701063Y333475D01*
X701091Y333497D01*
X701147Y333539D01*
X701203Y333595D01*
X701274Y333665D01*
X701351Y333750D01*
X701421Y333855D01*
X701492Y333975D01*
Y333968D01*
X701499Y333954D01*
X701506Y333933D01*
X701520Y333905D01*
X701548Y333820D01*
X701597Y333722D01*
X701661Y333616D01*
X701738Y333497D01*
X701830Y333391D01*
X701942Y333293D01*
X701956Y333285D01*
X701998Y333257D01*
X702062Y333215D01*
X702146Y333173D01*
X702259Y333131D01*
X702378Y333088D01*
X702519Y333060D01*
X702674Y333053D01*
X699219D01*
X702730D01*
X702800Y333060D01*
X702885Y333074D01*
X702983Y333088D01*
X703089Y333117D01*
X703202Y333152D01*
X703314Y333201D01*
X703328Y333208D01*
X703363Y333229D01*
X703413Y333257D01*
X703483Y333299D01*
X703553Y333356D01*
X703631Y333412D01*
X703708Y333482D01*
X703771Y333560D01*
X703778Y333567D01*
X703800Y333595D01*
X703828Y333644D01*
X703856Y333708D01*
X703898Y333785D01*
X703940Y333876D01*
X703975Y333975D01*
X704011Y334095D01*
Y334109D01*
X704025Y334151D01*
X704032Y334221D01*
X704046Y334313D01*
X704060Y334425D01*
X704074Y334559D01*
X704081Y334707D01*
X704088Y334875D01*
Y336733D01*
D02*
G37*
G36*
Y332701D02*
D01*
X699219Y330844D01*
Y330140D01*
X704088Y328149D01*
X699219D01*
X704088D01*
Y332701D01*
D02*
G37*
G36*
Y327994D02*
Y326390D01*
X699796D01*
Y327994D01*
X699219D01*
Y324139D01*
X704088D01*
Y327994D01*
D02*
G37*
G36*
X703300Y323625D02*
Y322303D01*
X701963D01*
Y323625D01*
X701407D01*
Y322303D01*
X700085D01*
Y321740D01*
X701407D01*
Y320417D01*
X700085D01*
X703300D01*
Y323625D01*
D02*
G37*
%LPD*%
G36*
X701260Y359853D02*
X701253Y359761D01*
X701245Y359663D01*
X701238Y359564D01*
X701224Y359466D01*
X701210Y359388D01*
X701203Y359374D01*
X701196Y359346D01*
X701175Y359304D01*
X701147Y359248D01*
X701119Y359191D01*
X701077Y359128D01*
X701020Y359065D01*
X700964Y359015D01*
X700957Y359008D01*
X700936Y358994D01*
X700894Y358973D01*
X700844Y358952D01*
X700788Y358931D01*
X700718Y358910D01*
X700633Y358896D01*
X700542Y358889D01*
X700528D01*
X700500D01*
X700458Y358896D01*
X700401Y358903D01*
X700331Y358917D01*
X700260Y358938D01*
X700190Y358966D01*
X700120Y359008D01*
X700113Y359015D01*
X700092Y359029D01*
X700057Y359058D01*
X700021Y359093D01*
X699979Y359142D01*
X699937Y359198D01*
X699895Y359269D01*
X699866Y359346D01*
Y359353D01*
X699852Y359388D01*
X699845Y359437D01*
X699831Y359515D01*
X699817Y359620D01*
X699810Y359740D01*
X699796Y359895D01*
Y361049D01*
X701260D01*
Y359853D01*
D02*
G37*
G36*
X703511Y359663D02*
X703504Y359515D01*
X703497Y359452D01*
X703490Y359395D01*
Y359388D01*
X703483Y359360D01*
X703476Y359318D01*
X703462Y359269D01*
X703420Y359149D01*
X703363Y359029D01*
X703356Y359022D01*
X703342Y359001D01*
X703321Y358973D01*
X703293Y358938D01*
X703251Y358903D01*
X703208Y358853D01*
X703152Y358818D01*
X703089Y358776D01*
X703082Y358769D01*
X703061Y358762D01*
X703019Y358748D01*
X702969Y358727D01*
X702913Y358706D01*
X702843Y358692D01*
X702758Y358685D01*
X702674Y358678D01*
X702660D01*
X702632D01*
X702575Y358685D01*
X702512Y358699D01*
X702442Y358713D01*
X702364Y358741D01*
X702287Y358776D01*
X702209Y358825D01*
X702202Y358832D01*
X702174Y358853D01*
X702139Y358882D01*
X702097Y358924D01*
X702048Y358980D01*
X701998Y359050D01*
X701956Y359128D01*
X701921Y359219D01*
X701914Y359234D01*
X701907Y359262D01*
X701893Y359325D01*
X701879Y359402D01*
X701865Y359501D01*
X701851Y359620D01*
X701836Y359768D01*
Y361049D01*
X703511D01*
Y359663D01*
D02*
G37*
G36*
X702083Y354618D02*
X700746Y355125D01*
X700739D01*
X700718Y355132D01*
X700683Y355146D01*
X700640Y355160D01*
X700591Y355181D01*
X700528Y355202D01*
X700458Y355223D01*
X700387Y355251D01*
X700225Y355308D01*
X700057Y355364D01*
X699888Y355420D01*
X699726Y355469D01*
X699733D01*
X699747Y355476D01*
X699775D01*
X699803Y355490D01*
X699852Y355498D01*
X699902Y355512D01*
X700021Y355540D01*
X700162Y355575D01*
X700317Y355624D01*
X700486Y355673D01*
X700662Y355737D01*
X702083Y356264D01*
Y354618D01*
D02*
G37*
G36*
X704088Y349102D02*
X699796D01*
Y350706D01*
X704088D01*
Y349102D01*
D02*
G37*
G36*
X701260Y334890D02*
X701253Y334798D01*
X701245Y334700D01*
X701238Y334601D01*
X701224Y334503D01*
X701210Y334425D01*
X701203Y334411D01*
X701196Y334383D01*
X701175Y334341D01*
X701147Y334285D01*
X701119Y334228D01*
X701077Y334165D01*
X701020Y334102D01*
X700964Y334052D01*
X700957Y334045D01*
X700936Y334031D01*
X700894Y334010D01*
X700844Y333989D01*
X700788Y333968D01*
X700718Y333947D01*
X700633Y333933D01*
X700542Y333926D01*
X700528D01*
X700500D01*
X700458Y333933D01*
X700401Y333940D01*
X700331Y333954D01*
X700260Y333975D01*
X700190Y334003D01*
X700120Y334045D01*
X700113Y334052D01*
X700092Y334066D01*
X700057Y334095D01*
X700021Y334130D01*
X699979Y334179D01*
X699937Y334235D01*
X699895Y334306D01*
X699866Y334383D01*
Y334390D01*
X699852Y334425D01*
X699845Y334474D01*
X699831Y334552D01*
X699817Y334657D01*
X699810Y334777D01*
X699796Y334932D01*
Y336086D01*
X701260D01*
Y334890D01*
D02*
G37*
G36*
X703511Y334700D02*
X703504Y334552D01*
X703497Y334489D01*
X703490Y334432D01*
Y334425D01*
X703483Y334397D01*
X703476Y334355D01*
X703462Y334306D01*
X703420Y334186D01*
X703363Y334066D01*
X703356Y334059D01*
X703342Y334038D01*
X703321Y334010D01*
X703293Y333975D01*
X703251Y333940D01*
X703208Y333890D01*
X703152Y333855D01*
X703089Y333813D01*
X703082Y333806D01*
X703061Y333799D01*
X703019Y333785D01*
X702969Y333764D01*
X702913Y333743D01*
X702843Y333729D01*
X702758Y333722D01*
X702674Y333715D01*
X702660D01*
X702632D01*
X702575Y333722D01*
X702512Y333736D01*
X702442Y333750D01*
X702364Y333778D01*
X702287Y333813D01*
X702209Y333862D01*
X702202Y333869D01*
X702174Y333890D01*
X702139Y333919D01*
X702097Y333961D01*
X702048Y334017D01*
X701998Y334087D01*
X701956Y334165D01*
X701921Y334256D01*
X701914Y334271D01*
X701907Y334299D01*
X701893Y334362D01*
X701879Y334439D01*
X701865Y334538D01*
X701851Y334657D01*
X701836Y334805D01*
Y336086D01*
X703511D01*
Y334700D01*
D02*
G37*
G36*
X702083Y329655D02*
X700746Y330162D01*
X700739D01*
X700718Y330169D01*
X700683Y330183D01*
X700640Y330197D01*
X700591Y330218D01*
X700528Y330239D01*
X700458Y330260D01*
X700387Y330288D01*
X700225Y330345D01*
X700057Y330401D01*
X699888Y330457D01*
X699726Y330506D01*
X699733D01*
X699747Y330513D01*
X699775D01*
X699803Y330527D01*
X699852Y330534D01*
X699902Y330549D01*
X700021Y330577D01*
X700162Y330612D01*
X700317Y330661D01*
X700486Y330710D01*
X700662Y330774D01*
X702083Y331301D01*
Y329655D01*
D02*
G37*
G36*
X704088Y328881D02*
X702610Y329451D01*
Y331491D01*
X704088Y332019D01*
Y328881D01*
D02*
G37*
G36*
Y324139D02*
X699796D01*
Y325743D01*
X704088D01*
Y324139D01*
D02*
G37*
G36*
X703300Y320417D02*
X701963D01*
Y321740D01*
X703300D01*
Y320417D01*
D02*
G37*
D10*
X492040Y308802D02*
G03*
X488942Y311900I-3098J0D01*
G01*
Y297704D02*
G03*
X492040Y300802I0J3098D01*
G01*
X467183Y311842D02*
G03*
X464085Y308744I0J-3098D01*
G01*
Y300744D02*
G03*
X467183Y297646I3098J0D01*
G01*
X573086Y506660D02*
G03*
X569988Y503562I0J-3098D01*
G01*
X584184D02*
G03*
X581086Y506660I-3098J0D01*
G01*
X570046Y481803D02*
G03*
X573144Y478705I3098J0D01*
G01*
X581144D02*
G03*
X584242Y481803I0J3098D01*
G01*
X497770Y492952D02*
G03*
X494672Y496050I-3098J0D01*
G01*
Y481854D02*
G03*
X497770Y484952I0J3098D01*
G01*
X472913Y495992D02*
G03*
X469815Y492894I0J-3098D01*
G01*
Y484894D02*
G03*
X472913Y481796I3098J0D01*
G01*
X562610Y406654D02*
G03*
X562610Y406654I-1270J0D01*
G01*
X622470Y294766D02*
X656366D01*
X622470D02*
Y303656D01*
X615650D02*
X622470D01*
X615650D02*
Y323184D01*
X693650Y312994D02*
Y377990D01*
X615649Y367807D02*
Y387335D01*
X622470D01*
Y396225D01*
X656367D01*
X500520Y405753D02*
Y412127D01*
X454520Y405753D02*
Y412127D01*
X469831Y392940D02*
X485209D01*
X469831Y424940D02*
X485209D01*
X470341Y548142D02*
X487341D01*
X470341Y562142D02*
X487341D01*
X467183Y311842D02*
X475183D01*
X464085Y300744D02*
Y308744D01*
X467183Y297646D02*
X475183D01*
X480942Y311900D02*
X488942D01*
X480942Y297704D02*
X488942D01*
X492040Y300802D02*
Y308803D01*
X570046Y481804D02*
Y489804D01*
X573144Y478705D02*
X581144D01*
X584242Y481804D02*
Y489804D01*
X569988Y495563D02*
Y503562D01*
X584184Y495563D02*
Y503562D01*
X573086Y506660D02*
X581086D01*
X472914Y495992D02*
X480914D01*
X469815Y484894D02*
Y492894D01*
X472914Y481796D02*
X480914D01*
X486673Y496050D02*
X494672D01*
X486673Y481854D02*
X494672D01*
X497770Y484952D02*
Y492952D01*
X560331Y411624D02*
Y429624D01*
X529331Y411624D02*
Y429624D01*
X423150Y549290D02*
X431790D01*
X423150Y539290D02*
Y549290D01*
X435010Y535290D02*
X441290D01*
X444510Y549290D02*
X453150D01*
Y539290D02*
Y549290D01*
D49*
X604149Y373433D02*
G03*
X604149Y373433I-1999J0D01*
G01*
D50*
X459976Y461522D02*
G03*
X458452Y463046I-1524J0D01*
G01*
Y441194D02*
G03*
X459976Y442718I0J1524D01*
G01*
X410228Y463046D02*
G03*
X408704Y461522I0J-1524D01*
G01*
Y442718D02*
G03*
X410228Y441194I1524J0D01*
G01*
X451884Y320798D02*
G03*
X453408Y319274I1524J0D01*
G01*
Y341126D02*
G03*
X451884Y339602I0J-1524D01*
G01*
X501632Y319274D02*
G03*
X503156Y320798I0J1524D01*
G01*
Y339602D02*
G03*
X501632Y341126I-1524J0D01*
G01*
X451884Y346418D02*
G03*
X453408Y344894I1524J0D01*
G01*
Y376466D02*
G03*
X451884Y374942I0J-1524D01*
G01*
X501632Y344894D02*
G03*
X503156Y346418I0J1524D01*
G01*
Y374942D02*
G03*
X501632Y376466I-1524J0D01*
G01*
X418058Y505000D02*
X435382D01*
X418058Y481238D02*
Y509362D01*
Y481238D02*
X419738D01*
X435382D02*
Y509362D01*
X433702Y481238D02*
X435382D01*
X467326Y540926D02*
X474506D01*
X467326Y530954D02*
Y540926D01*
Y530954D02*
X474506D01*
X479030Y540926D02*
X486211D01*
Y530954D02*
Y540926D01*
X479030Y530954D02*
X486211D01*
X459976Y442718D02*
Y461522D01*
X443602Y441194D02*
X458452D01*
X443602Y463046D02*
X458452D01*
X408704Y442718D02*
Y461522D01*
X410228Y441194D02*
X425078D01*
X410228Y463046D02*
X425078D01*
X451884Y320798D02*
Y339602D01*
X453408Y341126D02*
X468258D01*
X453408Y319274D02*
X468258D01*
X503156Y320798D02*
Y339602D01*
X486782Y341126D02*
X501632D01*
X486782Y319274D02*
X501632D01*
X532224Y495266D02*
Y502446D01*
Y495266D02*
X542196D01*
Y502446D01*
X532224Y506970D02*
Y514151D01*
X542196D01*
Y506970D02*
Y514151D01*
X516730Y495266D02*
Y502446D01*
Y495266D02*
X526702D01*
Y502446D01*
X516730Y506970D02*
Y514151D01*
X526702D01*
Y506970D02*
Y514151D01*
X444340Y284944D02*
Y292124D01*
Y284944D02*
X454312D01*
Y292124D01*
X444340Y296648D02*
Y303828D01*
X454312D01*
Y296648D02*
Y303828D01*
X451884Y346418D02*
Y374942D01*
X453408Y376466D02*
X469758D01*
X453408Y344894D02*
X469758D01*
X485282Y376466D02*
X501632D01*
X485282Y344894D02*
X501632D01*
X503156Y346418D02*
Y374942D01*
X442974Y500832D02*
Y510421D01*
X456186D01*
Y500832D02*
Y510421D01*
X442974Y482719D02*
Y492308D01*
Y482719D02*
X456186D01*
Y492308D01*
X465247Y504694D02*
X477148D01*
X495672D02*
X507573D01*
X463723Y506218D02*
Y525022D01*
X509097Y506218D02*
Y525022D01*
X465247Y526546D02*
X477148D01*
X495672D02*
X507573D01*
X513936Y431248D02*
Y438428D01*
Y431248D02*
X523908D01*
Y438428D01*
X513936Y442952D02*
Y450132D01*
X523908D01*
Y442952D02*
Y450132D01*
X528898Y456918D02*
Y474702D01*
X559682Y456918D02*
Y474702D01*
D51*
X486410Y515620D02*
G03*
X486410Y507170I7318J-4225D01*
G01*
Y515620D02*
G03*
X486410Y524070I-7318J4225D01*
G01*
D52*
X562473Y452795D02*
G03*
X562473Y452795I-1501J0D01*
G01*
D53*
X434271Y509362D02*
Y511100D01*
X419169Y509362D02*
Y511100D01*
X418058D02*
X419169D01*
X418058Y509362D02*
Y511100D01*
X435382Y509362D02*
Y511100D01*
X434271D02*
X435382D01*
X434271Y509362D02*
X435382D01*
X418058D02*
X419169D01*
X418058Y503571D02*
X435382D01*
D54*
X478850Y553867D02*
Y556407D01*
X477580Y555137D02*
X478880D01*
X481390Y553867D01*
Y556407D01*
X478872Y555167D02*
X481390Y556407D01*
X478819Y555137D02*
X480120D01*
X476310Y556407D02*
X478819Y555137D01*
X476310Y553867D02*
Y556407D01*
Y553867D02*
X478827Y555106D01*
D55*
X476193Y284889D02*
X479593D01*
X465492Y277411D02*
X475993D01*
X462492Y280411D02*
X465492Y277411D01*
X462492Y280411D02*
Y281412D01*
Y288412D01*
Y289412D02*
X465492Y292413D01*
X462492Y288412D02*
Y289412D01*
X465492Y292413D02*
X475993D01*
X491294Y277389D02*
Y292189D01*
X479793Y292390D02*
X491294D01*
X479793Y277389D02*
X491294D01*
X479593Y281389D02*
Y288189D01*
X476193Y284889D02*
X479593Y281489D01*
Y281389D02*
Y281489D01*
X476193Y284889D02*
X479494Y288189D01*
X479593D01*
M02*
