G04*
G04 #@! TF.GenerationSoftware,Altium Limited,Altium Designer,24.2.2 (26)*
G04*
G04 Layer_Color=16711935*
%FSLAX44Y44*%
%MOMM*%
G71*
G04*
G04 #@! TF.SameCoordinates,FA43C0E3-4D26-4613-8E19-43AB185FC845*
G04*
G04*
G04 #@! TF.FilePolarity,Negative*
G04*
G01*
G75*
%ADD11C,3.1500*%
%ADD12C,0.8612*%
%ADD33R,3.6500X1.6500*%
%ADD34R,1.2516X1.0516*%
%ADD35R,1.6016X1.4016*%
%ADD36R,0.9016X0.9016*%
%ADD37R,0.9016X1.0016*%
%ADD38R,1.0016X0.9016*%
%ADD39R,0.6673X0.6416*%
%ADD40R,1.5866X1.8296*%
%ADD41R,0.6416X0.6673*%
%ADD42R,1.7366X2.8016*%
%ADD43R,0.7020X1.2020*%
%ADD44R,0.9656X0.9081*%
%ADD45R,1.2917X1.8296*%
%ADD46R,0.9016X1.1016*%
%ADD47R,0.9016X0.9016*%
%ADD48R,0.6336X1.1736*%
D11*
X412754Y83364D02*
D03*
X603754D02*
D03*
Y804112D02*
D03*
X412754D02*
D03*
D12*
X692798Y268600D02*
D03*
X678575D02*
D03*
X662572D02*
D03*
X692152Y279608D02*
D03*
X678180Y280162D02*
D03*
X663842Y280284D02*
D03*
X602629Y394584D02*
D03*
X626250Y413126D02*
D03*
X612140Y406908D02*
D03*
X509016Y412242D02*
D03*
X480060Y411734D02*
D03*
X509270Y425704D02*
D03*
X421386Y276606D02*
D03*
X415290Y292608D02*
D03*
X418338Y326898D02*
D03*
X420370Y310642D02*
D03*
X438658Y277368D02*
D03*
X434594Y297434D02*
D03*
X439674Y315214D02*
D03*
X512064Y455930D02*
D03*
X501904D02*
D03*
X491490D02*
D03*
X480822D02*
D03*
X406654Y341376D02*
D03*
Y351536D02*
D03*
Y361950D02*
D03*
Y372618D02*
D03*
X417068Y341122D02*
D03*
Y351282D02*
D03*
Y361696D02*
D03*
Y372364D02*
D03*
X427990Y341122D02*
D03*
Y351282D02*
D03*
Y361696D02*
D03*
Y372364D02*
D03*
X438404Y340360D02*
D03*
Y350520D02*
D03*
Y360934D02*
D03*
Y371602D02*
D03*
X546100Y367792D02*
D03*
X556260D02*
D03*
X566674D02*
D03*
X577342D02*
D03*
X546354Y358394D02*
D03*
X556514D02*
D03*
X566928D02*
D03*
X577596D02*
D03*
X662432Y422910D02*
D03*
X672592D02*
D03*
X683006D02*
D03*
X693674D02*
D03*
X662178Y413766D02*
D03*
X672338D02*
D03*
X682752D02*
D03*
X693420D02*
D03*
X693674Y403860D02*
D03*
X683006D02*
D03*
X672592D02*
D03*
X662432D02*
D03*
X520700Y598424D02*
D03*
X521208Y526796D02*
D03*
X362966Y82550D02*
D03*
X506984Y499618D02*
D03*
X577088Y516890D02*
D03*
D33*
X675980Y303195D02*
D03*
X601980Y357995D02*
D03*
Y332994D02*
D03*
X675980Y387794D02*
D03*
D34*
X426720Y478376D02*
D03*
Y512224D02*
D03*
D35*
X460019Y420939D02*
D03*
X495021D02*
D03*
Y396941D02*
D03*
X460019D02*
D03*
D36*
X466740Y554990D02*
D03*
X490840D02*
D03*
D37*
X471139Y304800D02*
D03*
X485140D02*
D03*
X476870Y488950D02*
D03*
X490870D02*
D03*
D38*
X577088Y485760D02*
D03*
Y499760D02*
D03*
D39*
X472440Y535940D02*
D03*
X481096D02*
D03*
D40*
X418414Y452120D02*
D03*
X450266D02*
D03*
X493446Y330200D02*
D03*
X461594D02*
D03*
D41*
X537210Y509036D02*
D03*
Y500380D02*
D03*
X521716Y509036D02*
D03*
Y500380D02*
D03*
X449326Y298714D02*
D03*
Y290058D02*
D03*
X518922Y445018D02*
D03*
Y436362D02*
D03*
D42*
X462346Y360680D02*
D03*
X492694D02*
D03*
D43*
X535330Y434124D02*
D03*
X544830D02*
D03*
X554330D02*
D03*
Y407124D02*
D03*
X544830D02*
D03*
X535330D02*
D03*
D44*
X449580Y504104D02*
D03*
Y489036D02*
D03*
D45*
X471960Y515620D02*
D03*
X500860D02*
D03*
D46*
X428650Y530790D02*
D03*
X438149Y553790D02*
D03*
X447650Y530790D02*
D03*
D47*
X485384Y284919D02*
D03*
X469392Y284988D02*
D03*
D48*
X553789Y454319D02*
D03*
X544290D02*
D03*
X534790D02*
D03*
Y477301D02*
D03*
X544290D02*
D03*
X553789D02*
D03*
M02*
