G04*
G04 #@! TF.GenerationSoftware,Altium Limited,Altium Designer,24.2.2 (26)*
G04*
G04 Layer_Color=128*
%FSLAX44Y44*%
%MOMM*%
G71*
G04*
G04 #@! TF.SameCoordinates,FA43C0E3-4D26-4613-8E19-43AB185FC845*
G04*
G04*
G04 #@! TF.FilePolarity,Positive*
G04*
G01*
G75*
%ADD62C,0.1270*%
D62*
X402753Y83365D02*
X422753D01*
X412753Y73365D02*
Y93365D01*
X593754Y83365D02*
X613754D01*
X603754Y73365D02*
Y93365D01*
X593754Y804112D02*
X613754D01*
X603754Y794112D02*
Y814112D01*
X402753Y804112D02*
X422753D01*
X412753Y794112D02*
Y814112D01*
X691274Y268600D02*
X694323D01*
X692798Y267076D02*
Y270124D01*
X677050Y268600D02*
X680098D01*
X678575Y267076D02*
Y270124D01*
X661049Y268600D02*
X664097D01*
X662572Y267076D02*
Y270124D01*
X690628Y279608D02*
X693676D01*
X692152Y278084D02*
Y281132D01*
X676656Y280162D02*
X679704D01*
X678180Y278638D02*
Y281686D01*
X662318Y280284D02*
X665367D01*
X663842Y278760D02*
Y281808D01*
X601105Y394584D02*
X604152D01*
X602629Y393060D02*
Y396108D01*
X624726Y413126D02*
X627775D01*
X626250Y411602D02*
Y414650D01*
X610616Y406908D02*
X613664D01*
X612140Y405384D02*
Y408432D01*
X507492Y412242D02*
X510540D01*
X509016Y410718D02*
Y413766D01*
X478536Y411734D02*
X481584D01*
X480060Y410210D02*
Y413258D01*
X507746Y425704D02*
X510794D01*
X509270Y424180D02*
Y427228D01*
X419862Y276606D02*
X422910D01*
X421386Y275082D02*
Y278130D01*
X413766Y292608D02*
X416814D01*
X415290Y291084D02*
Y294132D01*
X416814Y326898D02*
X419862D01*
X418338Y325374D02*
Y328422D01*
X418846Y310642D02*
X421894D01*
X420370Y309118D02*
Y312166D01*
X437134Y277368D02*
X440182D01*
X438658Y275844D02*
Y278892D01*
X433070Y297434D02*
X436118D01*
X434594Y295910D02*
Y298958D01*
X438150Y315214D02*
X441198D01*
X439674Y313690D02*
Y316738D01*
X510540Y455930D02*
X513588D01*
X512064Y454406D02*
Y457454D01*
X500380Y455930D02*
X503428D01*
X501904Y454406D02*
Y457454D01*
X489966Y455930D02*
X493014D01*
X491490Y454406D02*
Y457454D01*
X479298Y455930D02*
X482346D01*
X480822Y454406D02*
Y457454D01*
X405130Y341376D02*
X408178D01*
X406654Y339852D02*
Y342900D01*
X405130Y351536D02*
X408178D01*
X406654Y350012D02*
Y353060D01*
X405130Y361950D02*
X408178D01*
X406654Y360426D02*
Y363474D01*
X405130Y372618D02*
X408178D01*
X406654Y371094D02*
Y374142D01*
X415544Y341122D02*
X418592D01*
X417068Y339598D02*
Y342646D01*
X415544Y351282D02*
X418592D01*
X417068Y349758D02*
Y352806D01*
X415544Y361696D02*
X418592D01*
X417068Y360172D02*
Y363220D01*
X415544Y372364D02*
X418592D01*
X417068Y370840D02*
Y373888D01*
X426466Y341122D02*
X429514D01*
X427990Y339598D02*
Y342646D01*
X426466Y351282D02*
X429514D01*
X427990Y349758D02*
Y352806D01*
X426466Y361696D02*
X429514D01*
X427990Y360172D02*
Y363220D01*
X426466Y372364D02*
X429514D01*
X427990Y370840D02*
Y373888D01*
X436880Y340360D02*
X439928D01*
X438404Y338836D02*
Y341884D01*
X436880Y350520D02*
X439928D01*
X438404Y348996D02*
Y352044D01*
X436880Y360934D02*
X439928D01*
X438404Y359410D02*
Y362458D01*
X436880Y371602D02*
X439928D01*
X438404Y370078D02*
Y373126D01*
X544576Y367792D02*
X547624D01*
X546100Y366268D02*
Y369316D01*
X554736Y367792D02*
X557784D01*
X556260Y366268D02*
Y369316D01*
X565150Y367792D02*
X568198D01*
X566674Y366268D02*
Y369316D01*
X575818Y367792D02*
X578866D01*
X577342Y366268D02*
Y369316D01*
X544830Y358394D02*
X547878D01*
X546354Y356870D02*
Y359918D01*
X554990Y358394D02*
X558038D01*
X556514Y356870D02*
Y359918D01*
X565404Y358394D02*
X568452D01*
X566928Y356870D02*
Y359918D01*
X576072Y358394D02*
X579120D01*
X577596Y356870D02*
Y359918D01*
X660908Y422910D02*
X663956D01*
X662432Y421386D02*
Y424434D01*
X671068Y422910D02*
X674116D01*
X672592Y421386D02*
Y424434D01*
X681482Y422910D02*
X684530D01*
X683006Y421386D02*
Y424434D01*
X692150Y422910D02*
X695198D01*
X693674Y421386D02*
Y424434D01*
X660654Y413766D02*
X663702D01*
X662178Y412242D02*
Y415290D01*
X670814Y413766D02*
X673862D01*
X672338Y412242D02*
Y415290D01*
X681228Y413766D02*
X684276D01*
X682752Y412242D02*
Y415290D01*
X691896Y413766D02*
X694944D01*
X693420Y412242D02*
Y415290D01*
X692150Y403860D02*
X695198D01*
X693674Y402336D02*
Y405384D01*
X681482Y403860D02*
X684530D01*
X683006Y402336D02*
Y405384D01*
X671068Y403860D02*
X674116D01*
X672592Y402336D02*
Y405384D01*
X660908Y403860D02*
X663956D01*
X662432Y402336D02*
Y405384D01*
X519176Y598424D02*
X522224D01*
X520700Y596900D02*
Y599948D01*
X519684Y526796D02*
X522732D01*
X521208Y525272D02*
Y528320D01*
X361442Y82550D02*
X364490D01*
X362966Y81026D02*
Y84074D01*
X505460Y499618D02*
X508508D01*
X506984Y498094D02*
Y501142D01*
X575564Y516890D02*
X578612D01*
X577088Y515366D02*
Y518414D01*
M02*
