G04*
G04 #@! TF.GenerationSoftware,Altium Limited,Altium Designer,24.2.2 (26)*
G04*
G04 Layer_Color=128*
%FSLAX44Y44*%
%MOMM*%
G71*
G04*
G04 #@! TF.SameCoordinates,FA43C0E3-4D26-4613-8E19-43AB185FC845*
G04*
G04*
G04 #@! TF.FilePolarity,Positive*
G04*
G01*
G75*
%ADD17R,3.5000X1.5000*%
%ADD18R,1.1500X0.9500*%
%ADD19R,1.5000X1.3000*%
%ADD20R,0.8000X0.8000*%
%ADD21R,0.8000X0.9000*%
%ADD22R,0.9000X0.8000*%
%ADD27R,0.6000X1.1000*%
%ADD29R,1.1901X1.7280*%
%ADD30R,0.8000X1.0000*%
%ADD31R,0.8000X0.8000*%
%ADD32R,0.5320X1.0720*%
G36*
X483925Y538240D02*
Y533640D01*
X483525Y533240D01*
X478518D01*
X478118Y533640D01*
Y538240D01*
X478518Y538640D01*
X483525D01*
X483925Y538240D01*
D02*
G37*
G36*
X475418D02*
Y533640D01*
X475018Y533240D01*
X470012D01*
X469612Y533640D01*
Y538240D01*
X470012Y538640D01*
X475018D01*
X475418Y538240D01*
D02*
G37*
G36*
X539910Y511465D02*
Y506458D01*
X539510Y506058D01*
X534910D01*
X534510Y506458D01*
Y511465D01*
X534910Y511865D01*
X539510D01*
X539910Y511465D01*
D02*
G37*
G36*
X524416D02*
Y506458D01*
X524016Y506058D01*
X519416D01*
X519016Y506458D01*
Y511465D01*
X519416Y511865D01*
X524016D01*
X524416Y511465D01*
D02*
G37*
G36*
X454080Y508520D02*
Y500520D01*
X453580Y500020D01*
X451300D01*
Y503720D01*
X448000D01*
Y500020D01*
X445580D01*
X445080Y500520D01*
Y508520D01*
X445580Y509020D01*
X453580D01*
X454080Y508520D01*
D02*
G37*
G36*
X539910Y502958D02*
Y497952D01*
X539510Y497552D01*
X534910D01*
X534510Y497952D01*
Y502958D01*
X534910Y503358D01*
X539510D01*
X539910Y502958D01*
D02*
G37*
G36*
X524416D02*
Y497952D01*
X524016Y497552D01*
X519416D01*
X519016Y497952D01*
Y502958D01*
X519416Y503358D01*
X524016D01*
X524416Y502958D01*
D02*
G37*
G36*
X454080Y492620D02*
Y484620D01*
X453580Y484120D01*
X445580D01*
X445080Y484620D01*
Y492620D01*
X445580Y493120D01*
X447860D01*
Y489420D01*
X451160D01*
Y493120D01*
X453580D01*
X454080Y492620D01*
D02*
G37*
G36*
X457690Y459760D02*
Y444480D01*
X456690Y443480D01*
X443840D01*
X442840Y444480D01*
Y448182D01*
X443840Y449183D01*
X446889D01*
X447889Y450182D01*
Y454058D01*
X446889Y455057D01*
X443840D01*
X442840Y456058D01*
Y459760D01*
X443840Y460760D01*
X456690D01*
X457690Y459760D01*
D02*
G37*
G36*
X425840D02*
Y456058D01*
X424840Y455057D01*
X421791D01*
X420791Y454058D01*
Y450182D01*
X421791Y449183D01*
X424840D01*
X425840Y448182D01*
Y444480D01*
X424840Y443480D01*
X411990D01*
X410990Y444480D01*
Y459760D01*
X411990Y460760D01*
X424840D01*
X425840Y459760D01*
D02*
G37*
G36*
X521622Y447446D02*
Y442440D01*
X521222Y442040D01*
X516622D01*
X516222Y442440D01*
Y447446D01*
X516622Y447846D01*
X521222D01*
X521622Y447446D01*
D02*
G37*
G36*
Y438940D02*
Y433934D01*
X521222Y433534D01*
X516622D01*
X516222Y433934D01*
Y438940D01*
X516622Y439340D01*
X521222D01*
X521622Y438940D01*
D02*
G37*
G36*
X500870Y373180D02*
Y348180D01*
X499870Y347180D01*
X485520D01*
X484520Y348180D01*
Y355090D01*
X485520Y356090D01*
X489079D01*
X490079Y357090D01*
Y364270D01*
X489079Y365270D01*
X485520D01*
X484520Y366270D01*
Y373180D01*
X485520Y374180D01*
X499870D01*
X500870Y373180D01*
D02*
G37*
G36*
X470520D02*
Y366270D01*
X469520Y365270D01*
X465961D01*
X464961Y364270D01*
Y357090D01*
X465961Y356090D01*
X469520D01*
X470520Y355090D01*
Y348180D01*
X469520Y347180D01*
X455170D01*
X454170Y348180D01*
Y373180D01*
X455170Y374180D01*
X469520D01*
X470520Y373180D01*
D02*
G37*
G36*
X500870Y337840D02*
Y322560D01*
X499870Y321560D01*
X487020D01*
X486020Y322560D01*
Y326263D01*
X487020Y327262D01*
X490069D01*
X491069Y328262D01*
Y332137D01*
X490069Y333138D01*
X487020D01*
X486020Y334137D01*
Y337840D01*
X487020Y338840D01*
X499870D01*
X500870Y337840D01*
D02*
G37*
G36*
X469020D02*
Y334137D01*
X468020Y333138D01*
X464971D01*
X463971Y332137D01*
Y328262D01*
X464971Y327262D01*
X468020D01*
X469020Y326263D01*
Y322560D01*
X468020Y321560D01*
X455170D01*
X454170Y322560D01*
Y337840D01*
X455170Y338840D01*
X468020D01*
X469020Y337840D01*
D02*
G37*
G36*
X452026Y301142D02*
Y296136D01*
X451626Y295736D01*
X447026D01*
X446626Y296136D01*
Y301142D01*
X447026Y301542D01*
X451626D01*
X452026Y301142D01*
D02*
G37*
G36*
Y292636D02*
Y287630D01*
X451626Y287229D01*
X447026D01*
X446626Y287630D01*
Y292636D01*
X447026Y293036D01*
X451626D01*
X452026Y292636D01*
D02*
G37*
D17*
X675980Y303195D02*
D03*
X601980Y357995D02*
D03*
Y332994D02*
D03*
X675980Y387794D02*
D03*
D18*
X426720Y478376D02*
D03*
Y512224D02*
D03*
D19*
X460019Y420939D02*
D03*
X495021D02*
D03*
Y396941D02*
D03*
X460019D02*
D03*
D20*
X466740Y554990D02*
D03*
X490840D02*
D03*
D21*
X471139Y304800D02*
D03*
X485140D02*
D03*
X476870Y488950D02*
D03*
X490870D02*
D03*
D22*
X577088Y485760D02*
D03*
Y499760D02*
D03*
D27*
X535330Y434124D02*
D03*
X544830D02*
D03*
X554330D02*
D03*
Y407124D02*
D03*
X544830D02*
D03*
X535330D02*
D03*
D29*
X471960Y515620D02*
D03*
X500860D02*
D03*
D30*
X428650Y530790D02*
D03*
X438149Y553790D02*
D03*
X447650Y530790D02*
D03*
D31*
X485384Y284919D02*
D03*
X469392Y284988D02*
D03*
D32*
X553789Y454319D02*
D03*
X544290D02*
D03*
X534790D02*
D03*
Y477301D02*
D03*
X544290D02*
D03*
X553789D02*
D03*
M02*
