M48
;Layer_Color=9474304
;FILE_FORMAT=4:4
METRIC,LZ
;TYPE=PLATED
T01F00S00C0.3048
T02F00S00C2.0000
%
T01
X00566928Y00358394
X00566674Y00367792
X00577342
X00577596Y00358394
X00602629Y00394584
X0061214Y00406908
X0062625Y00413126
X00662178Y00413766
X00662432Y0042291
X00672592
X00672338Y00413766
X00672592Y0040386
X00662432
X00683006
X00682752Y00413766
X00683006Y0042291
X00693674
X0069342Y00413766
X00693674Y0040386
X00692152Y00279608
X00692798Y002686
X00678575
X0067818Y00280162
X00663842Y00280284
X00662572Y002686
X00556514Y00358394
X0055626Y00367792
X005461
X00546354Y00358394
X00509016Y00412242
X0050927Y00425704
X00512064Y0045593
X00501904
X0049149
X00480822
X0048006Y00411734
X00438404Y00371602
Y00360934
Y0035052
Y0034036
X0042799Y00341122
Y00351282
Y00361696
Y00372364
X00417068
X00406654Y00372618
Y0036195
Y00351536
Y00341376
X00417068Y00341122
Y00351282
Y00361696
X00418338Y00326898
X0042037Y00310642
X0041529Y00292608
X00421386Y00276606
X00438658Y00277368
X00434594Y00297434
X00439674Y00315214
X00362966Y0008255
X00506984Y00499618
X00521208Y00526796
X005207Y00598424
X00577088Y0051689
T02
X00603754Y00083365
X00412753
Y00804112
X00603754
M30
